
        <svg xmlns="http://www.w3.org/2000/svg" xmlns:xlink="http://www.w3.org/1999/xlink" version="1.1" width="3168.53933306659" 
        height="727.8758456866777" viewBox="0 0 3168.53933306659 727.8758456866777">
			
			<g transform="scale(8.426966653329513) translate(10, 10)">
				<defs id="SvgjsDefs1450"></defs><g id="SvgjsG1451" featureKey="symbolFeature-0" transform="matrix(0.11379152758736125,0,0,0.11379152758736125,0,-5.211651876685099)" fill="#118df0"><g xmlns="http://www.w3.org/2000/svg">    <path d="M587.1,45.8c-52.2,0-103.5,13.8-148.2,40.5c-43.8-25.9-95.1-40.5-147.2-40.5C130.8,45.8,0,176.5,0,337.4         c0,160.9,130.8,291.7,291.7,291.7c52,0,103.1-13.7,147.7-40.2c44.6,26.5,95.7,40.2,147.7,40.2c160.9,0,291.7-130.8,291.7-291.7         C878.8,176.5,748,45.8,587.1,45.8z M439.4,559.9c-46.1-30.9-80.6-74-100.4-123.3l113.7,113.7C448.4,553.6,443.9,556.8,439.4,559.9z          M473.4,532.7L323.8,383.2c-2.6-15-3.9-30.3-3.9-45.8c0-3.6,0.1-7.2,0.2-10.8l178.4,179.1C490.8,515.3,482.4,524.3,473.4,532.7z          M514.7,483.7L323.8,292.1c2.5-14.5,6.1-28.6,10.9-42.3l199.2,199.2C528.3,461,521.9,472.6,514.7,483.7z M544.6,421.5L345.8,222.6         c5.5-11.5,11.8-22.6,18.9-33.3l190.1,190.1C552.5,393.8,549.1,407.9,544.6,421.5z M380.9,167.4c7.9-9.6,16.5-18.7,25.8-27.3         l146.6,146.6c3.1,16.5,4.7,33.4,4.7,50.7c0,2.3,0,4.6-0.1,7L380.9,167.4z M427.6,122.8c3.7-2.8,7.6-5.5,11.5-8.2         c44.6,29.3,78.1,70.3,98,117.6L427.6,122.8z M24.5,337.4C24.5,189.7,144,70.2,291.7,70.2c44.2,0,86.6,10.3,125.1,31         c-76.2,54.6-120.4,142.1-120.4,236.2S341.6,519,416.8,573.6c-38.6,20.7-81.9,31-125.1,31C144,604.7,24.5,485.2,24.5,337.4z          M587.1,604.7c-44.2,0-86.6-10.3-125.1-31c76.2-54.6,120.4-142.1,120.4-236.2S538.2,155.8,462,101.3c38.6-20.7,80.9-31,125.1-31         c147.7,0,267.2,119.5,267.2,267.2C854.4,485.2,734.9,604.7,587.1,604.7z"></path></g></g><g id="SvgjsG1452" featureKey="textGroupContainer" transform="matrix(1,0,0,1,354.99998474121094,7)" fill="#ffffff"><rect xmlns="http://www.w3.org/2000/svg" y="0" height="1" width="1" opacity="0"></rect><rect xmlns="http://www.w3.org/2000/svg" y="0" x="-235" width="3" height="52"></rect></g><g id="SvgjsG1453" featureKey="vMvB0T-0" transform="matrix(1.8254837938731978,0,0,1.8254837938731978,136.68565161618378,8.974077954642565)" fill="#ffffff"><path d="M4.48 16.28 q0.54 1.56 2.18 1.56 q0.82 0 1.33 -0.41 t0.8 -1.04 t0.39 -1.41 t0.1 -1.54 q0 -0.7 -0.05 -1.56 t-0.29 -1.61 t-0.76 -1.26 t-1.52 -0.51 q-0.96 0 -1.47 0.49 t-0.76 1.21 t-0.31 1.53 t-0.06 1.43 q0 0.92 0.09 1.64 t0.33 1.48 z M2.86 19.04 q-2.14 -1.78 -2.14 -5.86 q0 -1.76 0.41 -3.09 t1.18 -2.23 t1.87 -1.36 t2.48 -0.46 t2.49 0.46 t1.88 1.37 t1.18 2.24 t0.41 3.07 t-0.41 3.07 t-1.18 2.23 t-1.88 1.36 t-2.49 0.46 q-2.28 0 -3.8 -1.26 z M14.44 19.96 l1.06 -13.6 q0.88 -0.16 2.08 -0.16 t2.1 0.16 l1.18 4.9 q0.7 3.32 0.74 3.62 l0.14 0 q0.08 -0.5 0.74 -3.62 l1.2 -4.9 q0.88 -0.16 2.08 -0.16 t2.1 0.16 l1.06 13.6 q-0.62 0.16 -1.53 0.16 t-1.49 -0.1 l-0.32 -5.56 q-0.14 -3.32 -0.16 -4.62 l-0.12 0 l-1.98 8.14 q-0.72 0.12 -1.65 0.12 t-1.65 -0.12 l-1.96 -8.14 l-0.14 0 q0 1.78 -0.16 4.62 l-0.3 5.56 q-0.58 0.1 -1.49 0.1 t-1.53 -0.16 z M42.28 6.199999999999999 l0.14 0.14 l0 13.6 q-0.8 0.18 -1.89 0.18 t-1.93 -0.12 l-3.14 -7.16 q-0.56 -1.22 -1.14 -2.82 l-0.06 0.02 q0.24 2.92 0.24 5.98 l0 3.98 q-0.62 0.12 -1.5 0.12 t-1.48 -0.12 l0 -13.6 q0.76 -0.18 1.83 -0.18 t1.91 0.12 l3.1 7.14 q0.84 1.98 1.24 3.04 l0.08 -0.04 q-0.24 -2.78 -0.24 -5.9 l0 -2.44 q0 -1.04 0.42 -1.49 t1.36 -0.45 l1.06 0 z M45.480000000000004 20 l0 -13.66 q0.62 -0.12 1.6 -0.12 t1.62 0.12 l0 13.66 q-0.64 0.12 -1.62 0.12 t-1.6 -0.12 z M60.96 15.719999999999999 l-1.58 0 l0 4.28 q-0.64 0.12 -1.6 0.12 q-0.98 0 -1.6 -0.12 l0 -13.56 l0.14 -0.14 q1.74 -0.04 2.89 -0.06 t1.75 -0.02 q1.1 0 2.01 0.3 t1.55 0.9 t0.99 1.49 t0.35 2.05 t-0.36 2.05 t-1 1.49 t-1.55 0.91 t-1.99 0.31 z M59.38 8.66 l0 4.66 q0.56 -0.02 0.89 -0.03 t0.43 -0.01 q0.54 0 0.9 -0.19 t0.58 -0.5 t0.32 -0.73 t0.1 -0.88 q0 -0.44 -0.1 -0.86 t-0.31 -0.74 t-0.55 -0.51 t-0.8 -0.19 l-0.82 0 t-0.64 -0.02 z M70.92 16.28 q0.54 1.56 2.18 1.56 q0.82 0 1.33 -0.41 t0.8 -1.04 t0.39 -1.41 t0.1 -1.54 q0 -0.7 -0.05 -1.56 t-0.29 -1.61 t-0.76 -1.26 t-1.52 -0.51 q-0.96 0 -1.47 0.49 t-0.76 1.21 t-0.31 1.53 t-0.06 1.43 q0 0.92 0.09 1.64 t0.33 1.48 z M69.3 19.04 q-2.14 -1.78 -2.14 -5.86 q0 -1.76 0.41 -3.09 t1.18 -2.23 t1.87 -1.36 t2.48 -0.46 t2.49 0.46 t1.88 1.37 t1.18 2.24 t0.41 3.07 t-0.41 3.07 t-1.18 2.23 t-1.88 1.36 t-2.49 0.46 q-2.28 0 -3.8 -1.26 z M81.34 20 l0 -13.66 q0.62 -0.12 1.6 -0.12 t1.62 0.12 l0 13.66 q-0.64 0.12 -1.62 0.12 t-1.6 -0.12 z M98.4 6.199999999999999 l0.14 0.14 l0 13.6 q-0.8 0.18 -1.89 0.18 t-1.93 -0.12 l-3.14 -7.16 q-0.56 -1.22 -1.14 -2.82 l-0.06 0.02 q0.24 2.92 0.24 5.98 l0 3.98 q-0.62 0.12 -1.5 0.12 t-1.48 -0.12 l0 -13.6 q0.76 -0.18 1.83 -0.18 t1.91 0.12 l3.1 7.14 q0.84 1.98 1.24 3.04 l0.08 -0.04 q-0.24 -2.78 -0.24 -5.9 l0 -2.44 q0 -1.04 0.42 -1.49 t1.36 -0.45 l1.06 0 z M106.74000000000001 8.98 l0.02 1.48 l0 9.54 q-0.68 0.12 -1.62 0.12 t-1.58 -0.12 l0 -11.02 l-1.28 0.02 l-2.06 0 q-0.12 -0.58 -0.12 -1.33 t0.12 -1.33 l9.9 0 q0.16 0.52 0.16 1.26 t-0.4 1.07 t-1.28 0.33 l-0.58 0 l-1.26 -0.02 l-0.02 0 z"></path></g>
			</g>
		</svg>
	