<?xml version="1.0" encoding="utf-8"?>
<!-- Generator: Adobe Illustrator 27.5.0, SVG Export Plug-In . SVG Version: 6.00 Build 0)  -->
<svg version="1.1" xmlns="http://www.w3.org/2000/svg" xmlns:xlink="http://www.w3.org/1999/xlink" x="0px" y="0px"
	 viewBox="0 0 2475 1650" style="enable-background:new 0 0 2475 1650;" xml:space="preserve">
<g id="Background">
	<rect style="fill:#FFFFFF;" width="2475" height="1650"/>
</g>
<g id="Illustration">
	<g>
		
			<linearGradient id="SVGID_1_" gradientUnits="userSpaceOnUse" x1="-4969.2998" y1="782.8684" x2="-2852.4873" y2="782.8684" gradientTransform="matrix(-1 0 0 1 -2681.2141 0)">
			<stop  offset="0" style="stop-color:#DAE3FE"/>
			<stop  offset="1" style="stop-color:#E9EFFD"/>
		</linearGradient>
		<path style="fill:url(#SVGID_1_);" d="M1736.67,222.598c124.357,131.664,555.919-14.606,551.38,228.142
			c-5.315,284.238-429.459,367.866-292.12,567.639c137.339,199.772-14.322,423.696-566.217,419.479
			c-551.895-4.217-1439.732-254.941-1225.836-527.255C417.773,638.289,275.26,624.32,264.826,503.97
			c-10.434-120.35,97.778-384.337,525.215-164.189S1421.763-110.815,1736.67,222.598z"/>
		<g>
			<path style="fill:#91B3FA;" d="M713.665,745.385c0,0-7.204-125.131-67.449-153.871c-60.245-28.74-171.319-40.728-190.027-219.723
				c-10.953-104.791-17.29-150.482-20.661-170.355c-1.315-7.752,5.109-14.619,12.929-13.796
				c55.315,5.825,235.733,33.65,282.679,151.423C786.79,478.683,713.665,745.385,713.665,745.385z"/>
			<path style="fill:#DCE5FE;" d="M494.965,233.709c18.202,13.611,34.869,28.773,51.094,44.502l6.039,5.938l5.905,6.069
				c3.95,4.036,7.889,8.085,11.693,12.261c7.741,8.233,15.094,16.812,22.524,25.334c7.191,8.718,14.473,17.379,21.254,26.434
				c7.003,8.888,13.572,18.103,20.161,27.309c12.766,18.733,25.296,37.486,36.098,57.654c2.688,5.049,5.452,10.063,8.07,15.146
				l7.076,15.616l3.534,7.81l3.065,7.995l6.018,16.032l5.12,16.32l2.541,8.164l2.125,8.275c1.394,5.521,2.883,11.021,4.133,16.573
				l3.369,16.731c8.255,44.776,11.174,90.244,6.808,135.757c-0.258,2.688-2.646,4.658-5.334,4.4
				c-2.586-0.248-4.507-2.468-4.42-5.029l0.011-0.309c0.794-21.866,0.093-44.267-1.985-66.279
				c-1.976-22.078-5.329-43.991-9.708-65.649l-3.581-16.179c-1.337-5.355-2.848-10.663-4.227-16.005l-2.122-7.998l-2.528-7.871
				l-5.078-15.73l-5.908-15.418l-2.931-7.716l-3.387-7.518l-6.764-15.04c-2.505-4.885-5.151-9.698-7.716-14.552
				c-4.931-9.766-10.948-19.186-16.555-28.742c-2.781-4.803-5.952-9.367-8.908-14.064c-3.055-4.633-5.906-9.405-9.129-13.928
				c-12.324-18.485-25.596-36.325-39.238-53.898c-6.985-8.654-13.932-17.351-21.219-25.767c-3.545-4.295-7.228-8.468-10.925-12.632
				l-5.529-6.265l-5.665-6.138c-15.034-16.409-30.752-32.385-47.221-47.236l-0.082-0.074c-1.139-1.027-1.229-2.782-0.202-3.92
				C492.208,233.002,493.829,232.866,494.965,233.709z"/>
		</g>
		<g>
			<path style="fill:#BDD0FB;" d="M689.122,1263.523c12.017,6.869-107.442-164.627-131.831-423.61
				c-11.493-122.04-2.132-273.436-67.255-336.143c-54.199-52.189-251.068-33.911-315.585-26.311
				c-8.062,0.949-11.385,10.846-5.511,16.45c28.954,27.628,90.536,92.37,103.706,154.514c17.36,81.91,90.628,137.96,158.251,156.163
				c67.623,18.203,104.876,34.068,131.293,145.737C588.608,1061.992,654.977,1244.005,689.122,1263.523z"/>
			<path style="fill:#DCE5FE;" d="M261.974,517.347c41.008,4.478,80.979,17.314,117.211,37.505
				c18.144,10.038,35.045,22.462,50.133,36.862c14.967,14.507,28.129,31.066,38.22,49.406l3.749,6.892
				c1.234,2.305,2.251,4.718,3.386,7.074c1.072,2.371,2.245,4.755,3.231,7.117l2.971,7.084c3.982,9.436,7.918,18.892,11.756,28.388
				c7.702,18.981,15.098,38.089,22.19,57.307c14.207,38.435,27.19,77.31,37.747,116.984c0.277,1.042-0.343,2.111-1.384,2.388
				c-1.002,0.266-2.029-0.296-2.353-1.266l-0.019-0.059c-6.412-19.328-13.177-38.623-20.315-57.739
				c-7.041-19.159-14.305-38.235-21.773-57.229l-11.285-28.458l-11.6-28.331c-3.857-9.448-7.81-18.856-11.81-28.244l-2.984-7.048
				c-0.992-2.353-2.094-4.55-3.134-6.834c-1.072-2.254-2.024-4.569-3.191-6.775l-3.542-6.599
				c-9.49-17.603-22.085-33.372-36.179-47.574c-7.206-6.949-14.672-13.682-22.753-19.66l-2.986-2.298l-3.074-2.182
				c-2.056-1.446-4.075-2.947-6.162-4.352c-4.214-2.751-8.396-5.559-12.761-8.085c-17.267-10.43-35.812-18.745-54.845-25.672
				c-19.028-6.911-38.799-12.238-58.765-15.482l-0.101-0.016c-0.854-0.139-1.433-0.943-1.295-1.797
				C260.392,517.828,261.153,517.259,261.974,517.347z"/>
		</g>
		<g>
			<path style="fill:#91B3FA;" d="M601.971,1281.135c6.89,3.632-38.806-75.019-42.312-144.313
				c-3.507-69.293-19.139-187.561-78.894-258.308c-59.755-70.747-125.193-77.201-207.648-12.886
				c-68.712,53.596-111.573,80.644-136.71,85.672c-6.224,1.245-9.401,8.271-6.372,13.849c16.122,29.69,61.703,97.887,138.236,93.086
				c97.622-6.124,215.934-69.586,251.994-16.645c36.06,52.94,31.429,82.562,32.537,107.652
				C553.91,1174.332,556.38,1257.097,601.971,1281.135z"/>
			<path style="fill:#DCE5FE;" d="M300.953,950.729c5.386-5.176,11.094-9.827,16.991-14.32c5.893-4.479,11.967-8.751,18.299-12.64
				c12.617-7.833,26.097-14.518,40.47-19.126c7.189-2.276,14.597-4.035,22.18-5.008c7.582-0.92,15.337-1.049,23.036-0.096
				c1.916,0.31,3.851,0.492,5.75,0.917c1.883,0.443,3.835,0.806,5.66,1.328l10.785,3.348l10.556,4.106l10.234,4.92
				c13.416,7.071,25.55,16.639,35.641,27.898c10.173,11.224,18.106,24.164,24.633,37.548l2.449,5.029
				c0.84,1.666,1.45,3.427,2.185,5.135c1.385,3.45,2.878,6.86,4.169,10.337l3.612,10.517c1.279,3.482,2.088,7.1,3.117,10.65
				c4.062,14.222,6.857,28.713,9.244,43.219c0.146,0.886-0.454,1.723-1.34,1.868c-0.842,0.139-1.639-0.396-1.841-1.21l-0.013-0.053
				c-3.486-14.19-6.816-28.402-11.575-42.141c-2.161-6.942-4.889-13.655-7.423-20.432c-1.366-3.346-2.923-6.605-4.371-9.909
				c-0.765-1.631-1.408-3.326-2.272-4.904l-2.518-4.773c-6.664-12.736-14.753-24.653-24.383-35.08
				c-9.641-10.425-21.074-19.014-33.59-25.603l-9.599-4.547l-9.948-3.803l-10.221-3.108c-1.696-0.481-3.351-0.798-5.028-1.211
				c-1.671-0.394-3.396-0.556-5.091-0.851c-6.839-0.899-13.84-0.848-20.799-0.057c-6.969,0.738-13.912,2.198-20.735,4.185
				c-13.668,3.961-26.864,9.88-39.556,16.769c-6.32,3.498-12.591,7.142-18.678,11.097c-6.067,3.959-12.068,8.144-17.789,12.528
				l-0.042,0.032c-0.741,0.568-1.802,0.427-2.369-0.313C300.253,952.285,300.339,951.317,300.953,950.729z"/>
		</g>
		<g>
			
				<linearGradient id="SVGID_00000088102117559339792950000016882951345815279035_" gradientUnits="userSpaceOnUse" x1="1726.0867" y1="347.2238" x2="2098.9761" y2="347.2238">
				<stop  offset="0" style="stop-color:#2B3582"/>
				<stop  offset="1" style="stop-color:#150E42"/>
			</linearGradient>
			<path style="fill:url(#SVGID_00000088102117559339792950000016882951345815279035_);" d="M2096.517,504.175
				c-1.314,0-2.404-1.039-2.455-2.363c-0.02-0.515-2.152-52.22-15.383-112.401c-12.163-55.325-36.451-129.343-83.09-167.776
				c-26.625-21.941-58.075-30.288-93.474-24.809c-40.833,6.32-75.214,26.162-102.189,58.976
				c-21.681,26.376-38.683,61.152-50.533,103.364c-20.246,72.119-18.357,141.779-18.335,142.475
				c0.042,1.357-1.025,2.491-2.381,2.533c-0.026,0-0.052,0.001-0.077,0.001c-1.322,0-2.415-1.051-2.456-2.382
				c-0.022-0.701-1.939-71.015,18.486-143.849c12.03-42.896,29.344-78.297,51.462-105.219
				c27.771-33.803,63.189-54.245,105.271-60.757c36.845-5.704,69.603,3.004,97.358,25.877
				c21.131,17.415,39.549,43.221,54.743,76.704c12.101,26.668,22.207,58.256,30.035,93.888
				c13.313,60.595,15.456,112.667,15.476,113.185c0.053,1.357-1.004,2.499-2.361,2.551
				C2096.581,504.174,2096.548,504.175,2096.517,504.175z"/>
			
				<linearGradient id="SVGID_00000020392474503926082700000009741166985527479484_" gradientUnits="userSpaceOnUse" x1="1477.0725" y1="1600.0596" x2="2086.729" y2="577.4081">
				<stop  offset="0" style="stop-color:#4042E2"/>
				<stop  offset="1" style="stop-color:#4F52FF"/>
			</linearGradient>
			<path style="fill:url(#SVGID_00000020392474503926082700000009741166985527479484_);" d="M1386.828,1383.046l139.418-945.173
				l523.741-8.657l168.809,1006.362h-786.617C1404.198,1435.578,1382.745,1410.727,1386.828,1383.046z"/>
			
				<linearGradient id="SVGID_00000045618034175413450270000002190295407476742565_" gradientUnits="userSpaceOnUse" x1="2116.948" y1="1036.9089" x2="1332.0201" y2="2114.2612">
				<stop  offset="0" style="stop-color:#4042E2"/>
				<stop  offset="1" style="stop-color:#4F52FF"/>
			</linearGradient>
			<path style="fill:url(#SVGID_00000045618034175413450270000002190295407476742565_);" d="M2151.705,437.872l-101.718-8.657
				l168.809,1006.362h100.981c20.474,0,35.775-18.816,31.601-38.859L2151.705,437.872z"/>
			
				<linearGradient id="SVGID_00000152247759953986153370000004322984104654591624_" gradientUnits="userSpaceOnUse" x1="1613.5471" y1="345.0604" x2="1986.4366" y2="345.0604">
				<stop  offset="0" style="stop-color:#2B3582"/>
				<stop  offset="1" style="stop-color:#150E42"/>
			</linearGradient>
			<path style="fill:url(#SVGID_00000152247759953986153370000004322984104654591624_);" d="M1616.06,502.011
				c-1.322,0-2.415-1.051-2.456-2.383c-0.022-0.701-1.939-71.015,18.486-143.849c12.03-42.895,29.344-78.297,51.462-105.218
				c27.771-33.803,63.189-54.245,105.271-60.757c36.846-5.701,69.603,3.004,97.358,25.877
				c21.131,17.414,39.549,43.221,54.743,76.704c12.101,26.667,22.207,58.255,30.035,93.888
				c13.313,60.594,15.456,112.666,15.476,113.184c0.053,1.357-1.004,2.499-2.361,2.551c-1.352,0.048-2.499-1.004-2.551-2.361
				c-0.02-0.515-2.152-52.219-15.383-112.401c-12.163-55.325-36.452-129.343-83.09-167.775
				c-26.625-21.94-58.073-30.292-93.475-24.809c-40.851,6.322-75.244,26.179-102.224,59.019
				c-21.682,26.392-38.682,61.189-50.527,103.425c-20.224,72.115-18.327,141.675-18.306,142.369
				c0.042,1.357-1.024,2.491-2.381,2.533C1616.111,502.011,1616.086,502.011,1616.06,502.011z"/>
		</g>
		<g>
			<path style="fill:#BDD0FB;" d="M1249.166,508.52c31.435-18.017,121.063,52.912,179.056,2.42l1.048-77.527
				c0,0-88.21,40.136-129.663,28.761c-41.453-11.375-25.243-33.964,0.522-38.628c25.764-4.665,99.486,12.072,121.115-11.922
				c0,0,16.991-19.132-11.687-35.936c-28.678-16.804-28.376-75.059-16.338-97.479c0,0-13.885,5.513-51.152,3.18
				c-37.267-2.333-74.609-7.348-79.338,26.035c-4.73,33.382,6.161,77.854-13.624,84.154c-19.785,6.299-56.505-70.515-6.649-115.407
				c0,0-58.989-8.23-73.914,2.872c-14.925,11.102-21.978,47.123,5.347,90.176c27.326,43.052,26.949,70.956,12.11,75.68
				c-14.839,4.724-75.374-131.977-32.23-166.056c0,0-107.102,29.111-117.086,39.049c-9.984,9.937,12.172,71.154,39.655,102.629
				c27.482,31.475,26.917,73.277,16.896,85.891c-10.021,12.614-19.159-40.043-35.306-59.961
				c-16.147-19.918-42.676-121.99-42.676-121.99s-3.48,14.494-38.16,29.703c-34.68,15.208-82.901,60.523-70.037,80.397
				c12.865,19.874,92.199,101.745,106.53,134.594c14.331,32.848,18.858,62.272,0.947,51.453
				c-17.913-10.819-37.043-52.961-59.673-79.113c-22.629-26.152-89.126-86.151-82.25-109.041c0,0-79.654,63.208-54.633,155.35
				c0,0,38.954,33.019,86.462,40.334c47.51,7.314,67.139,12.504,70.201,28.962c3.06,16.458-29.7,11.09-59.178,5.767
				c-29.478-5.324-98.279-16.314-109.505-36.061c0,0,45.763,136.482,142.823,121.627c91.024-13.93,98.286-26.585,98.838-28.104
				c-1.645,5.794-49.895,181.456,153.76,165.604c0,0-47.481-9.38-55.264-40.841c-7.783-31.462-49.938-70.47-28.484-78.869
				c21.455-8.399,49.459,105.939,98.638,111.187c49.179,5.247,107.722-42.462,107.419-97.016c0,0-42.305,16.432-82.954-12.507
				c-40.65-28.939-87.582-78.987-48.179-79.193c39.403-0.206,130.664,93.951,163.287,87.33
				c32.621-6.621,56.537-121.213,56.537-121.213s-16.784,4.698-75.346-1.019c-58.563-5.717-123.978-24.283-112.332-35.806
				c11.648-11.522,53.491,3.608,91.404,15.718c37.912,12.109,89.287,6.613,96.737-13.174c7.451-19.787,15.054-85.523,15.054-85.523
				s-76.403,7.593-110.651,14.395C1282.996,556.201,1217.731,526.536,1249.166,508.52z M1115.429,691.791
				c-43.999-18.697-5.925-32.204,21.751-35.778C1158.191,653.301,1159.427,710.489,1115.429,691.791z M1167.255,617.208
				c-29.392-11.701-31.773-27.911-14.744-32.267C1191.641,574.932,1196.647,628.909,1167.255,617.208z M1212.73,532.096
				c-16.346-5.318-21.185-11.605-6.241-24.153C1221.434,495.395,1229.075,537.414,1212.73,532.096z"/>
		</g>
		<g>
			<g>
				
					<linearGradient id="SVGID_00000094619425343179505310000010029865924288105124_" gradientUnits="userSpaceOnUse" x1="1816.4609" y1="414.2947" x2="1342.5784" y2="105.2413" gradientTransform="matrix(0.9936 0.1129 -0.1129 0.9936 404.8287 -9.3817)">
					<stop  offset="0" style="stop-color:#FE7062"/>
					<stop  offset="1" style="stop-color:#FF928E"/>
				</linearGradient>
				<path style="fill:url(#SVGID_00000094619425343179505310000010029865924288105124_);" d="M2305.141,703.182
					c1.032-2.586,0.961-5.48-0.189-8.015c-17.149-37.777-78.655-173.033-80.917-174.645c-2.629-1.874-85.258-73.668-85.258-73.668
					c-15.224-13.22-20.053-0.42-20.053-0.42l-31.526,131.161l81.466,173.808c2.304,4.916,8.051,7.17,13.083,5.133l117.739-47.672
					C2302.068,707.82,2304.11,705.767,2305.141,703.182z M2128.782,494.243c-6.533-4.658-8.053-13.73-3.396-20.263
					c4.657-6.533,13.729-8.053,20.263-3.396c6.533,4.658,8.053,13.73,3.396,20.263
					C2144.387,497.381,2135.315,498.901,2128.782,494.243z"/>
				<g style="opacity:0.84;">
					<path style="fill:#FFFFFF;" d="M2172.155,610.864c11.154,19.371,8.442,33.924-0.826,39.26
						c-9.476,5.457-22.882-0.003-33.162-17.616c-10.016-17.391-9.217-33.1,1.196-39.097
						C2150.088,587.235,2162.629,594.321,2172.155,610.864z M2193.763,688.602l-15.454-117.618l7.289-4.198l15.453,117.619
						L2193.763,688.602z M2147.628,626.306c6.003,10.664,13.293,16.821,18.394,13.882c5.104-2.939,3.368-11.729-3.064-22.898
						c-5.862-10.181-12.667-17.182-18.186-14.003C2139.566,606.285,2141.684,615.984,2147.628,626.306z M2240.79,622.175
						c11.073,19.227,8.545,33.862-0.827,39.26c-9.371,5.397-22.881-0.004-33.139-17.818c-9.933-17.249-9.216-33.099,1.093-39.036
						C2218.642,598.403,2231.264,605.632,2240.79,622.175z M2216.263,637.615c5.921,10.522,13.291,16.822,18.394,13.883
						c5.207-2.998,3.369-11.73-3.063-22.899c-5.944-10.321-12.667-17.181-18.186-14.003
						C2208.201,617.594,2210.32,627.294,2216.263,637.615z"/>
				</g>
			</g>
			<g>
				
					<linearGradient id="SVGID_00000100365941561716070460000007932380836226497169_" gradientUnits="userSpaceOnUse" x1="1703.5697" y1="267.7819" x2="1777.825" y2="267.7819" gradientTransform="matrix(0.9936 0.1129 -0.1129 0.9936 404.8287 -9.3817)">
					<stop  offset="0" style="stop-color:#2C759E"/>
					<stop  offset="1" style="stop-color:#051042"/>
				</linearGradient>
				<path style="fill:url(#SVGID_00000100365941561716070460000007932380836226497169_);" d="M2131.804,485.103
					c-2.352-0.267-4.426-1.908-5.13-4.32l0,0c-0.43-1.46-11.034-35.892-52.501-47.62c-3.218-0.911-5.087-4.256-4.178-7.472
					c0.909-3.218,4.253-5.094,7.472-4.178c48.133,13.614,60.339,54.178,60.834,55.898c0.926,3.212-0.927,6.567-4.139,7.493
					C2133.373,485.131,2132.574,485.19,2131.804,485.103z"/>
			</g>
		</g>
		<g>
			<g>
				
					<linearGradient id="SVGID_00000183251077143538660530000004051275936846481079_" gradientUnits="userSpaceOnUse" x1="1547.2367" y1="561.0048" x2="211.3285" y2="2048.9009">
					<stop  offset="0" style="stop-color:#E1473D"/>
					<stop  offset="1" style="stop-color:#E9605A"/>
				</linearGradient>
				<path style="fill:url(#SVGID_00000183251077143538660530000004051275936846481079_);" d="M1867.207,626.34l-20.385,683.643
					l-3.164,105.853c-0.085,13.82-11.488,25.062-25.308,24.977l-1359.505-8.408c-13.82-0.086-25.083-11.467-24.997-25.287
					l-0.881-105.878l-5.599-675.454c0.085-13.821,16.537-40.69,46.35-38.472l1328.876-26.171c17.348-0.325,34.09,6.44,46.299,18.779
					C1861.102,592.237,1867.725,609.018,1867.207,626.34z"/>
				
					<linearGradient id="SVGID_00000053516584884072204830000004416662374939096485_" gradientUnits="userSpaceOnUse" x1="977.2054" y1="1434.5515" x2="1413.7985" y2="309.6346">
					<stop  offset="0" style="stop-color:#FE7062"/>
					<stop  offset="1" style="stop-color:#FF928E"/>
				</linearGradient>
				<path style="fill:url(#SVGID_00000053516584884072204830000004416662374939096485_);" d="M1810.548,1394.254
					c-0.08,12.891-10.922,23.372-24.094,23.291l-1295.078-8.009c-13.172-0.082-23.884-10.696-23.804-23.587l-6.267-729.156
					c0.08-12.891,15.739-37.963,44.142-35.896l1265.891-24.255c16.529-0.317,32.471,6.014,44.104,17.514
					c11.633,11.501,17.94,27.165,17.45,43.338L1810.548,1394.254z"/>
				<path style="opacity:0.71;fill:#FFFFFF;" d="M1785.658,1420.445l-145.533-0.9c-1.139-0.007-2.054-0.935-2.047-2.073
					c0.007-1.138,0.934-2.054,2.072-2.047l145.532,0.9c18.567,0.115,33.769-15.244,33.887-34.235l2.755-445.498
					c0.007-1.138,0.934-2.054,2.073-2.047c1.138,0.007,2.054,0.935,2.047,2.073l-2.755,445.497
					C1823.558,1403.38,1806.498,1420.574,1785.658,1420.445z"/>
				<path style="opacity:0.71;fill:#FFFFFF;" d="M460.786,926.112c-1.139-0.007-2.054-0.935-2.047-2.073l1.605-259.595
					c0.169-27.229,21.652-49.248,47.893-49.086l115.14,0.712c1.138,0.007,2.054,0.935,2.047,2.073
					c-0.007,1.138-0.934,2.054-2.073,2.047l-115.14-0.712c-23.968-0.149-43.593,20.034-43.747,44.991l-1.606,259.596
					C462.852,925.203,461.925,926.119,460.786,926.112z"/>
				
					<linearGradient id="SVGID_00000148642610073704725180000002355851365796026805_" gradientUnits="userSpaceOnUse" x1="1300.9373" y1="-325.3941" x2="922.9539" y2="592.5671" gradientTransform="matrix(0.8984 -6.000000e-04 -6.000000e-04 1 -165.5457 -0.7991)">
					<stop  offset="0" style="stop-color:#E1473D"/>
					<stop  offset="1" style="stop-color:#E9605A"/>
				</linearGradient>
				<path style="fill:url(#SVGID_00000148642610073704725180000002355851365796026805_);" d="M736.463,694.094
					c-0.102,16.495-12.199,29.793-27.019,29.702l-168.407-1.041c-14.82-0.092-26.752-13.538-26.65-30.033l0,0
					c0.102-16.496,12.199-29.794,27.019-29.702l168.408,1.042C724.633,664.152,736.564,677.599,736.463,694.094L736.463,694.094z"/>
			</g>
			<g style="opacity:0.93;">
				<path style="fill:#FFFFFF;" d="M673.014,944.599V766.814h33.076v148.843h45.844v28.942H673.014z"/>
				<path style="fill:#FFFFFF;" d="M895.428,855.463c0,29.428-5.513,52.046-16.538,67.855
					c-11.025,15.809-26.794,23.712-47.304,23.712c-20.593,0-36.401-7.883-47.425-23.652c-11.026-15.766-16.538-38.488-16.538-68.159
					c0-29.428,5.512-51.986,16.538-67.673c11.024-15.687,26.914-23.53,47.668-23.53c20.51,0,36.238,7.884,47.183,23.652
					C889.956,803.438,895.428,826.034,895.428,855.463z M801.429,855.463c0,20.268,2.554,35.712,7.661,46.332
					c5.107,10.621,12.604,15.93,22.496,15.93c19.943,0,29.914-20.753,29.914-62.262c0-41.506-9.892-62.262-29.671-62.262
					c-10.053,0-17.633,5.29-22.739,15.869C803.982,819.65,801.429,835.115,801.429,855.463z"/>
				<path style="fill:#FFFFFF;" d="M964.135,836.979l23.714-70.165h34.657l-42.197,106.524v71.26h-32.589v-69.922l-42.075-107.863
					h34.9L964.135,836.979z"/>
				<path style="fill:#FFFFFF;" d="M1122.343,944.599l-10.215-44.872h-46.332l-10.214,44.872h-33.076l44.021-178.515h44.872
					l44.142,178.515H1122.343z M1105.925,870.42l-9.485-41.346c-0.568-2.511-1.845-8.816-3.831-18.91
					c-1.987-10.093-3.182-16.842-3.587-20.247c-1.055,6.974-2.393,14.653-4.013,23.044c-1.623,8.391-5.837,27.544-12.647,57.459
					H1105.925z"/>
				<path style="fill:#FFFFFF;" d="M1171.227,944.599V766.814h33.076v148.843h45.844v28.942H1171.227z"/>
				<path style="fill:#FFFFFF;" d="M1325.907,944.599h-32.954V795.877h-34.05v-29.063h101.054v29.063h-34.05V944.599z"/>
				<path style="fill:#FFFFFF;" d="M1421.732,836.979l23.714-70.165h34.657l-42.198,106.524v71.26h-32.589v-69.922l-42.075-107.863
					h34.9L1421.732,836.979z"/>
				<path style="fill:#FFFFFF;" d="M708.401,1120.389c0,18.89-4.764,33.381-14.288,43.474
					c-9.528,10.093-23.288,15.139-41.286,15.139h-8.268v64.45h-33.076v-177.785h45.115
					C691.134,1065.668,708.401,1083.908,708.401,1120.389z M644.559,1150.303h6.323c8.106,0,14.147-2.228,18.12-6.688
					c3.971-4.457,5.958-11.753,5.958-21.889c0-9.321-1.823-16.233-5.472-20.733c-3.648-4.499-9.283-6.749-16.903-6.749h-8.025
					V1150.303z"/>
				<path style="fill:#FFFFFF;" d="M763.853,1174.26v69.193h-33.076v-177.785h43.29c18.321,0,31.84,4.337,40.555,13.011
					c8.714,8.676,13.073,21.93,13.073,39.765c0,22.457-7.581,38.144-22.74,47.061l34.171,77.948h-35.386l-28.091-69.193H763.853z
					 M763.853,1145.805h8.513c7.782,0,13.376-2.209,16.781-6.628c3.405-4.418,5.107-11.006,5.107-19.761
					c0-9.078-1.805-15.545-5.411-19.397c-3.608-3.849-9.18-5.775-16.721-5.775h-8.268V1145.805z"/>
				<path style="fill:#FFFFFF;" d="M977.633,1154.317c0,29.428-5.513,52.046-16.538,67.855
					c-11.025,15.809-26.794,23.712-47.304,23.712c-20.593,0-36.401-7.883-47.425-23.652c-11.026-15.766-16.538-38.488-16.538-68.159
					c0-29.428,5.512-51.986,16.538-67.673c11.024-15.687,26.914-23.53,47.668-23.53c20.51,0,36.239,7.884,47.183,23.652
					C972.161,1102.292,977.633,1124.889,977.633,1154.317z M883.633,1154.317c0,20.268,2.554,35.712,7.661,46.332
					c5.107,10.621,12.604,15.93,22.496,15.93c19.943,0,29.914-20.753,29.914-62.262c0-41.506-9.892-62.262-29.671-62.262
					c-10.053,0-17.633,5.29-22.739,15.87C886.187,1118.504,883.633,1133.969,883.633,1154.317z"/>
				<path style="fill:#FFFFFF;" d="M1057.284,1144.832h54.357v91.203c-15.404,6.567-31.781,9.85-49.129,9.85
					c-20.672,0-36.583-7.862-47.729-23.59c-11.147-15.727-16.72-38.386-16.72-67.977c0-28.536,6.383-50.87,19.153-67.004
					c12.768-16.132,30.623-24.198,53.566-24.198c14.186,0,27.726,3.648,40.616,10.944l-10.458,26.995
					c-10.053-5.837-19.456-8.755-28.212-8.755c-12.568,0-22.517,5.614-29.854,16.842c-7.338,11.229-11.005,26.531-11.005,45.906
					c0,19.942,2.655,35.225,7.965,45.844c5.309,10.621,13.031,15.93,23.166,15.93c5.351,0,10.781-0.688,16.295-2.068v-40.737
					h-22.011V1144.832z"/>
				<path style="fill:#FFFFFF;" d="M1171.835,1174.26v69.193h-33.076v-177.785h43.291c18.321,0,31.84,4.337,40.555,13.011
					c8.714,8.676,13.073,21.93,13.073,39.765c0,22.457-7.581,38.144-22.74,47.061l34.171,77.948h-35.386l-28.091-69.193H1171.835z
					 M1171.835,1145.805h8.513c7.782,0,13.376-2.209,16.781-6.628c3.405-4.418,5.106-11.006,5.106-19.761
					c0-9.078-1.804-15.545-5.411-19.397c-3.608-3.849-9.18-5.775-16.721-5.775h-8.269V1145.805z"/>
				<path style="fill:#FFFFFF;" d="M1347.431,1243.453l-10.215-44.872h-46.332l-10.214,44.872h-33.076l44.021-178.515h44.872
					l44.142,178.515H1347.431z M1331.014,1169.275l-9.485-41.346c-0.568-2.511-1.845-8.816-3.831-18.909
					c-1.987-10.093-3.182-16.842-3.587-20.247c-1.055,6.974-2.393,14.653-4.013,23.044c-1.623,8.391-5.837,27.544-12.647,57.459
					H1331.014z"/>
				<path style="fill:#FFFFFF;" d="M1459.793,1243.453l-33.806-151.398h-1.337c1.539,11.675,2.311,22.376,2.311,32.104v119.293
					h-30.645v-177.785h50.831l30.4,139.723h0.973l30.157-139.723h51.56v177.785h-31.374v-120.51c0-9.971,0.565-20.186,1.702-30.643
					h-0.973l-33.683,151.153H1459.793z"/>
			</g>
			<g>
				<g>
					
						<linearGradient id="SVGID_00000049912677591412783590000000672117845678811784_" gradientUnits="userSpaceOnUse" x1="1671.0089" y1="802.0825" x2="1656.8187" y2="1043.3115">
						<stop  offset="0" style="stop-color:#E1473D"/>
						<stop  offset="1" style="stop-color:#E9605A"/>
					</linearGradient>
					<path style="fill:url(#SVGID_00000049912677591412783590000000672117845678811784_);" d="M1760.121,884.487
						c0,19.483-15.794,35.277-35.277,35.277h-117.341c-19.483,0-35.277-15.794-35.277-35.277v-0.428
						c0-19.483,15.794-35.277,35.277-35.277h117.341c19.483,0,35.277,15.794,35.277,35.277V884.487z"/>
					<g style="opacity:0.83;">
						<path style="fill:#FFFFFF;" d="M1613.44,864.304c2.354-0.483,6.641-0.845,10.807-0.845c5.493,0,8.875,0.664,11.652,2.596
							c2.535,1.509,4.225,4.165,4.225,7.606c0,3.743-2.354,7.184-6.763,8.814v0.121c4.286,1.087,8.211,4.467,8.211,10.082
							c0,3.622-1.568,6.46-3.925,8.392c-2.897,2.535-7.667,3.803-15.091,3.803c-4.105,0-7.244-0.302-9.117-0.543V864.304z
							 M1620.806,880.362h3.803c5.131,0,8.03-2.414,8.03-5.855c0-3.804-2.899-5.554-7.608-5.554c-2.174,0-3.441,0.121-4.225,0.302
							V880.362z M1620.806,899.077c0.965,0.121,2.235,0.181,3.925,0.181c4.767,0,8.995-1.811,8.995-6.821
							c0-4.709-4.105-6.641-9.237-6.641h-3.683V899.077z"/>
						<path style="fill:#FFFFFF;" d="M1655.571,863.761v23.725c0,7.969,3.321,11.652,8.333,11.652c5.373,0,8.572-3.683,8.572-11.652
							v-23.725h7.424v23.243c0,12.557-6.46,18.111-16.239,18.111c-9.417,0-15.516-5.252-15.516-18.051v-23.303H1655.571z"/>
						<path style="fill:#FFFFFF;" d="M1697.644,904.45v-16.964l-12.859-23.725h8.45l4.889,10.444
							c1.39,3.019,2.415,5.312,3.502,8.089h0.122c1.026-2.595,2.171-5.131,3.561-8.089l4.889-10.444h8.391l-13.523,23.544v17.144
							H1697.644z"/>
					</g>
				</g>
				<g style="opacity:0.79;">
					<path style="fill:#FFFFFF;" d="M1760.971,649.127c-1.188-1.461-3.052-2.067-5.029-2.026l-180.007,3.776l-4.547-14.444
						c-0.632-2.012-2.524-3.301-4.664-3.245l-24.715,0.649c-2.65,0.069-4.796,1.912-4.796,4.557c0,2.645,2.146,4.381,4.796,4.318
						l21.12-0.499l38.216,122.118c0.644,2.055,2.573,3.469,4.761,3.498l126.346,1.696c2.965,0.04,5.372-1.821,5.372-4.625
						c0-2.803-2.407-4.723-5.372-4.755l-122.659-1.322l-9.844-31.707l134.792,0.204c2.76,0.004,5.193-1.802,5.966-4.306
						l21.274-68.786C1762.535,652.436,1762.161,650.589,1760.971,649.127z"/>
					<path style="fill:#FFFFFF;" d="M1624.589,775.363c-10.396-0.162-18.806,7.93-18.806,18.036c0,10.106,8.41,18.548,18.806,18.822
						c10.458,0.275,19.014-7.813,19.014-18.031C1643.603,783.972,1635.047,775.526,1624.589,775.363z M1624.589,802.392
						c-4.859-0.114-8.802-4.054-8.802-8.784c0-4.73,3.943-8.505,8.802-8.416c4.872,0.09,8.847,4.031,8.847,8.785
						C1633.436,798.731,1629.461,802.506,1624.589,802.392z"/>
					<path style="fill:#FFFFFF;" d="M1708.812,776.673c-10.911-0.17-19.737,8.115-19.737,18.468
						c0,10.352,8.826,19.006,19.737,19.293c10.978,0.288,19.96-7.993,19.96-18.463
						C1728.772,785.501,1719.79,776.843,1708.812,776.673z M1708.812,804.364c-5.099-0.119-9.238-4.158-9.238-9.004
						c0-4.846,4.138-8.712,9.238-8.618c5.115,0.094,9.287,4.134,9.287,9.005C1718.099,800.618,1713.927,804.483,1708.812,804.364z"
						/>
				</g>
			</g>
		</g>
		<g>
			
				<linearGradient id="SVGID_00000110459514963207241640000002194131828618059434_" gradientUnits="userSpaceOnUse" x1="435.8331" y1="1434.8611" x2="216.0449" y2="1673.9292">
				<stop  offset="0" style="stop-color:#09005D"/>
				<stop  offset="1" style="stop-color:#1A0F91"/>
			</linearGradient>
			<path style="fill:url(#SVGID_00000110459514963207241640000002194131828618059434_);" d="M366.358,1452.67
				c0,0-2.276,12.886-3.392,25.642c-0.436,4.985,3.408,9.313,8.407,9.522c16.987,0.708,53.322,2.083,66.36,1.501
				c1.96-0.087,3.242-2.094,2.516-3.917l0,0c-0.608-1.528-1.78-2.763-3.274-3.449l-60.019-27.585L366.358,1452.67z"/>
			
				<linearGradient id="SVGID_00000047738164008986722190000001132712363906796184_" gradientUnits="userSpaceOnUse" x1="364.4931" y1="1452.6172" x2="384.0156" y2="1452.6172">
				<stop  offset="0" style="stop-color:#A22B25"/>
				<stop  offset="1" style="stop-color:#C0423C"/>
			</linearGradient>
			<path style="fill:url(#SVGID_00000047738164008986722190000001132712363906796184_);" d="M364.493,1445.099l1.828,15.413
				c0,0,10.514,4.894,17.694-0.617l-4.354-17.177L364.493,1445.099z"/>
			
				<linearGradient id="SVGID_00000092453796409196386010000009900705737499415200_" gradientUnits="userSpaceOnUse" x1="329.1253" y1="1435.2587" x2="372.2639" y2="1184.6447">
				<stop  offset="0" style="stop-color:#09005D"/>
				<stop  offset="1" style="stop-color:#1A0F91"/>
			</linearGradient>
			<path style="fill:url(#SVGID_00000092453796409196386010000009900705737499415200_);" d="M365.867,1155.327
				c-0.79,4.025-4.24,200.86,16.8,289.068c0.344,1.44-0.386,2.923-1.756,3.482c-3.227,1.318-9.553,3.228-17.135,3.483
				c-2.348,0.078-4.453-1.448-5.116-3.701c-6.014-20.465-34.833-123.005-38.593-220.957c-4.201-109.452,0-3.727,0-3.727
				l2.464-67.657L365.867,1155.327z"/>
			
				<linearGradient id="SVGID_00000076563081631185314080000016575763114530542476_" gradientUnits="userSpaceOnUse" x1="386.5263" y1="1389.5322" x2="166.7399" y2="1628.5984">
				<stop  offset="0" style="stop-color:#09005D"/>
				<stop  offset="1" style="stop-color:#1A0F91"/>
			</linearGradient>
			<path style="fill:url(#SVGID_00000076563081631185314080000016575763114530542476_);" d="M297.316,1459.392
				c0,0-3.623,6.505-7.131,23.792c-0.633,3.122,1.548,6.109,4.718,6.421c5.609,0.552,14.244,1.261,21.161,1.213
				c3.188-0.022,5.677-2.798,5.293-5.964c-0.766-6.31-3.153-16.662-10.527-24.73L297.316,1459.392z"/>
			
				<linearGradient id="SVGID_00000048490273622030511120000008437398679456726946_" gradientUnits="userSpaceOnUse" x1="294.1336" y1="1451.6161" x2="310.9894" y2="1451.6161">
				<stop  offset="0" style="stop-color:#A22B25"/>
				<stop  offset="1" style="stop-color:#C0423C"/>
			</linearGradient>
			<path style="fill:url(#SVGID_00000048490273622030511120000008437398679456726946_);" d="M294.134,1439.568l4.273,23.309
				c0,0,4.225,3.143,12.583,0.865l-2.04-25.079L294.134,1439.568z"/>
			
				<linearGradient id="SVGID_00000080181509343926790530000002963194854570560926_" gradientUnits="userSpaceOnUse" x1="280.3461" y1="1426.8621" x2="323.4847" y2="1176.2478">
				<stop  offset="0" style="stop-color:#09005D"/>
				<stop  offset="1" style="stop-color:#1A0F91"/>
			</linearGradient>
			<path style="fill:url(#SVGID_00000080181509343926790530000002963194854570560926_);" d="M282.59,1161.367
				c-17.208,103.851,3.733,256.678,10.795,286.59c0.432,1.831,1.91,3.234,3.767,3.542c3.152,0.523,8.342,0.949,13.46-0.537
				c1.763-0.512,3.001-2.102,3.073-3.936c0.947-24.183-0.758-172.642,15.276-231.313c0.813-2.973,2.629-5.567,5.141-7.353
				l31.121-22.124l2.386-35.762L282.59,1161.367z"/>
			<g>
				
					<linearGradient id="SVGID_00000034803411372633261260000014231104575840632719_" gradientUnits="userSpaceOnUse" x1="398.4666" y1="959.225" x2="174.2476" y2="1301.4542">
					<stop  offset="0" style="stop-color:#4042E2"/>
					<stop  offset="1" style="stop-color:#4F52FF"/>
				</linearGradient>
				<path style="fill:url(#SVGID_00000034803411372633261260000014231104575840632719_);" d="M392.24,964.588
					c-51.569-0.852-108.47,13.54-108.47,13.54c-15.372,89.694-2.688,193.149-2.688,193.149c39.923,10.469,84.96-6.401,84.96-6.401
					c6.635-37.49,37.595-142.998,37.595-142.998c25.197-3.127,45.953-10.397,63.046-20.008
					c-13.038-15.113-19.185-34.344-21.855-45.712C426.596,961.824,408.146,964.851,392.24,964.588z"/>
				
					<linearGradient id="SVGID_00000096763251288324366650000018356791545099351450_" gradientUnits="userSpaceOnUse" x1="444.8287" y1="943.2953" x2="544.5661" y2="943.2953">
					<stop  offset="0" style="stop-color:#A22B25"/>
					<stop  offset="1" style="stop-color:#C0423C"/>
				</linearGradient>
				<path style="fill:url(#SVGID_00000096763251288324366650000018356791545099351450_);" d="M544.566,888.629
					c-5.066-6.119-11.478-3.224-11.478-3.224c-7.589,32.056-47.38,58.048-88.26,70.753c2.669,11.368,8.816,30.599,21.855,45.712
					C534.528,963.724,544.566,888.629,544.566,888.629z"/>
			</g>
			<g>
				
					<linearGradient id="SVGID_00000000209540092461572990000005282110201300950199_" gradientUnits="userSpaceOnUse" x1="12515.4307" y1="926.5773" x2="12582.3574" y2="1078.8511" gradientTransform="matrix(-1 0 0 1 13037.7783 0)">
					<stop  offset="0" style="stop-color:#A22B25"/>
					<stop  offset="1" style="stop-color:#C0423C"/>
				</linearGradient>
				<path style="fill:url(#SVGID_00000000209540092461572990000005282110201300950199_);" d="M543.336,890.185
					c0.53,1.685-5.608,4.251-9.222-2.641c-0.126-3.303-2.135-17.454-0.161-20.145c10.512-14.331,30.893-32.297,30.893-32.297
					c3.445,3.399,0.607,6.738,0.607,6.738l-9.887,10.3c2.068,3.737,4.59,6.891,5.773,11.411c0.896,3.423,0.348,7.082-1.381,10.197
					c-1.736,3.127-4.103,7.191-6.342,10.372C549.378,890.14,543.336,890.185,543.336,890.185z"/>
				
					<linearGradient id="SVGID_00000033348290065231635310000009900104248057130404_" gradientUnits="userSpaceOnUse" x1="486.6562" y1="904.0838" x2="637.0965" y2="824.4388">
					<stop  offset="0" style="stop-color:#C4421B"/>
					<stop  offset="1" style="stop-color:#5C0E16"/>
				</linearGradient>
				<path style="fill:url(#SVGID_00000033348290065231635310000009900104248057130404_);" d="M551.241,858.822l-9.01,7.638
					l-2.828,7.604l8.033,8.912c0,0,2.701-15.088,4.708-18.354C554.151,861.356,553.11,859.777,551.241,858.822z"/>
			</g>
			
				<linearGradient id="SVGID_00000178904739933124241710000014669988231092437888_" gradientUnits="userSpaceOnUse" x1="340.1952" y1="921.0472" x2="115.9765" y2="1263.276">
				<stop  offset="0" style="stop-color:#4042E2"/>
				<stop  offset="1" style="stop-color:#4F52FF"/>
			</linearGradient>
			<path style="fill:url(#SVGID_00000178904739933124241710000014669988231092437888_);" d="M303.55,1028.063l-19.779-49.935
				c0,0-48.169,32.729-56.09,74.225c9.102,0.671,24.361,3.189,40.571,11.375C275.567,1047.266,303.55,1028.063,303.55,1028.063z"/>
			
				<linearGradient id="SVGID_00000078038650333416075440000011295004823713764773_" gradientUnits="userSpaceOnUse" x1="323.5004" y1="949.6356" x2="373.4028" y2="949.6356">
				<stop  offset="0" style="stop-color:#A22B25"/>
				<stop  offset="1" style="stop-color:#C0423C"/>
			</linearGradient>
			<path style="fill:url(#SVGID_00000078038650333416075440000011295004823713764773_);" d="M340.005,922.722l-16.409,47.452
				c-0.272,0.786,0.051,1.657,0.779,2.059c4.473,2.473,20.587,9.621,40.007-2.691c2.023-1.283,3.4-3.374,3.708-5.75l5.313-41.07
				H340.005z"/>
			<g>
				
					<linearGradient id="SVGID_00000035500294853897118160000001881425349317360266_" gradientUnits="userSpaceOnUse" x1="-5526.0371" y1="-1723.299" x2="-5544.6851" y2="-1784.8049" gradientTransform="matrix(0.746 -0.6659 0.6659 0.746 5655.2402 -1476.3188)">
					<stop  offset="0" style="stop-color:#A22B25"/>
					<stop  offset="1" style="stop-color:#C0423C"/>
				</linearGradient>
				<path style="fill:url(#SVGID_00000035500294853897118160000001881425349317360266_);" d="M375.707,878.779
					c0,0,18.018,33.917,15.709,47.618c-2.31,13.701-24.641,12.717-44.141,1.59l-13.626-36.623L375.707,878.779z"/>
				
					<linearGradient id="SVGID_00000150064668252590568370000001792627391101931681_" gradientUnits="userSpaceOnUse" x1="-5542.8613" y1="-1830.464" x2="-5527.2622" y2="-1741.4917" gradientTransform="matrix(0.746 -0.6659 0.6659 0.746 5655.2402 -1476.3188)">
					<stop  offset="0" style="stop-color:#09005D"/>
					<stop  offset="1" style="stop-color:#1A0F91"/>
				</linearGradient>
				<path style="fill:url(#SVGID_00000150064668252590568370000001792627391101931681_);" d="M348.137,910.002
					c0.792-0.351,1.085-1.32,0.61-2.046c-1.443-2.205-4.149-6.704-5.013-10.644c0,0-3.239-2.074,8.244-4.823
					c11.483-2.749,28.608-7.015,32.207-16.79c3.51-9.53-5.711-33.496-20.422-14.4c-0.56,0.726-1.656,0.742-2.215,0.015
					c-2.412-3.138-8.752-9.654-17.554-5.704c-8.237,3.696-9.165,9.732-9.052,12.775c0.033,0.895-0.767,1.591-1.647,1.423
					c-4.165-0.794-14.159-1.477-18.824,8.776c-3.842,8.445-1.345,13.225,0.929,15.563c0.737,0.758,0.414,2.005-0.596,2.314
					c-2.737,0.838-6.272,3.158-5.918,9.571c0.489,8.866,10.401,8.084,13.223,7.68c0.462-0.066,0.928,0.093,1.241,0.439
					c2.42,2.678,13.322,14.048,25.121,15.418c1.022,0.119,1.814-0.89,1.479-1.863l-5.106-14.844
					c-0.237-0.689,0.093-1.446,0.759-1.741L348.137,910.002z"/>
				
					<linearGradient id="SVGID_00000109747258165451490240000002678097515141244554_" gradientUnits="userSpaceOnUse" x1="-5545.0996" y1="-1723.5853" x2="-5561.8779" y2="-1778.9233" gradientTransform="matrix(0.746 -0.6659 0.6659 0.746 5655.2402 -1476.3188)">
					<stop  offset="0" style="stop-color:#A22B25"/>
					<stop  offset="1" style="stop-color:#C0423C"/>
				</linearGradient>
				<path style="fill:url(#SVGID_00000109747258165451490240000002678097515141244554_);" d="M350.19,912.109
					c0,0-12.829-8.802-13.766-1.39c-0.937,7.413,11.552,10.737,17.739,7.973L350.19,912.109z"/>
			</g>
			
				<linearGradient id="SVGID_00000155121571768055435170000004952895487062628528_" gradientUnits="userSpaceOnUse" x1="329.6005" y1="1155.1444" x2="226.8573" y2="1072.9498">
				<stop  offset="0" style="stop-color:#A22B25"/>
				<stop  offset="1" style="stop-color:#C0423C"/>
			</linearGradient>
			<path style="fill:url(#SVGID_00000155121571768055435170000004952895487062628528_);" d="M228.013,1052.754
				c0,0-32.922,74.989,47.554,85.963l10.974-9.145c0,0-40.238-21.948-18.29-65.844
				C268.251,1063.728,244.474,1043.609,228.013,1052.754z"/>
			
				<linearGradient id="SVGID_00000004510440210326140910000010139523614924506780_" gradientUnits="userSpaceOnUse" x1="326.2685" y1="1159.3092" x2="223.5255" y2="1077.1147">
				<stop  offset="0" style="stop-color:#A22B25"/>
				<stop  offset="1" style="stop-color:#C0423C"/>
			</linearGradient>
			<path style="fill:url(#SVGID_00000004510440210326140910000010139523614924506780_);" d="M286.541,1129.572h29.264
				c0,0,18.29,23.777,16.461,29.264c-1.829,5.487-19.906,1.126-19.906,1.126l-9.358-15.758c0,0-27.435,1.829-27.435-5.487
				C275.567,1131.401,286.541,1129.572,286.541,1129.572z"/>
		</g>
		<g>
			<g>
				
					<linearGradient id="SVGID_00000080927829339520172940000000435631853413109919_" gradientUnits="userSpaceOnUse" x1="1191.079" y1="453.3025" x2="1344.3757" y2="432.1094" gradientTransform="matrix(1 -0.0082 0.0082 1 369.603 836.2859)">
					<stop  offset="0" style="stop-color:#4042E2"/>
					<stop  offset="1" style="stop-color:#4F52FF"/>
				</linearGradient>
				<polygon style="fill:url(#SVGID_00000080927829339520172940000000435631853413109919_);" points="1697.7,1267.422 
					1605.235,1248.865 1614.993,1261.502 1597.686,1276.244 1699.727,1284.95 				"/>
				
					<linearGradient id="SVGID_00000139286239713113981540000014017976748289842109_" gradientUnits="userSpaceOnUse" x1="8866.2686" y1="451.9204" x2="9019.5664" y2="430.7272" gradientTransform="matrix(-1 0.0082 0.0082 1 10706.4658 752.9119)">
					<stop  offset="0" style="stop-color:#4042E2"/>
					<stop  offset="1" style="stop-color:#4F52FF"/>
				</linearGradient>
				<polygon style="fill:url(#SVGID_00000139286239713113981540000014017976748289842109_);" points="1710.416,1267.319 
					1802.567,1247.258 1793.016,1260.052 1810.561,1274.51 1708.675,1284.878 				"/>
			</g>
			<g>
				
					<linearGradient id="SVGID_00000154427866301134240430000018186269836482686652_" gradientUnits="userSpaceOnUse" x1="1277.5659" y1="492.7259" x2="1283.4454" y2="384.443" gradientTransform="matrix(1 -0.0082 0.0082 1 369.603 836.2859)">
					<stop  offset="0" style="stop-color:#4042E2"/>
					<stop  offset="1" style="stop-color:#4F52FF"/>
				</linearGradient>
				<path style="fill:url(#SVGID_00000154427866301134240430000018186269836482686652_);" d="M1632.789,1217.401
					c2.015-1.347,4.49-1.821,6.86-1.314l16.293,3.482c2.144,0.458,4.025,1.733,5.244,3.554l34.572,51.616l5.959-5.7l-35.991-61.888
					c-2.798-4.81-7.861-7.856-13.421-8.074l-14.739-0.578c-10.428-0.409-20.025,5.668-24.114,15.269l-5.441,12.775
					c-2.646,6.212,0.127,13.402,6.259,16.228l74.088,34.149l2.806-2.496l-57.333-39.422c-3.804-2.616-5.716-7.224-4.88-11.764
					C1629.389,1220.853,1630.774,1218.748,1632.789,1217.401z"/>
				
					<linearGradient id="SVGID_00000101824796908460811550000013164702251274027710_" gradientUnits="userSpaceOnUse" x1="8961.9082" y1="491.3363" x2="8967.7871" y2="383.0601" gradientTransform="matrix(-1 0.0082 0.0082 1 10711.1777 752.8734)">
					<stop  offset="0" style="stop-color:#4042E2"/>
					<stop  offset="1" style="stop-color:#4F52FF"/>
				</linearGradient>
				<path style="fill:url(#SVGID_00000101824796908460811550000013164702251274027710_);" d="M1770.063,1216.283
					c-2.037-1.314-4.519-1.747-6.88-1.202l-16.234,3.747c-2.136,0.493-3.995,1.798-5.186,3.638l-33.727,52.172l-6.051-5.602
					l34.979-62.466c2.719-4.855,7.731-7.983,13.288-8.292l14.728-0.818c10.42-0.579,20.114,5.341,24.359,14.874l5.648,12.684
					c2.746,6.168,0.091,13.402-5.994,16.328l-73.523,35.351l-2.846-2.45l56.683-40.35c3.761-2.678,5.597-7.316,4.688-11.842
					C1773.518,1219.679,1772.099,1217.597,1770.063,1216.283z"/>
			</g>
			
				<linearGradient id="SVGID_00000171709054575248626840000016526987405809551757_" gradientUnits="userSpaceOnUse" x1="1599.1132" y1="1387.9738" x2="1804.6875" y2="1387.9738">
				<stop  offset="0" style="stop-color:#09005D"/>
				<stop  offset="1" style="stop-color:#1A0F91"/>
			</linearGradient>
			<path style="fill:url(#SVGID_00000171709054575248626840000016526987405809551757_);" d="M1599.113,1292.403l10.293,184.279
				c0.254,4.538,4.12,8.573,8.632,8.536l170.868-1.391c4.512-0.037,8.312-4.135,8.492-8.676l7.291-184.422L1599.113,1292.403z"/>
			
				<linearGradient id="SVGID_00000050633624912055085300000005145839435494237631_" gradientUnits="userSpaceOnUse" x1="1328.3115" y1="461.7469" x2="1328.3115" y2="697.5528" gradientTransform="matrix(1 -0.0082 0.0082 1 369.603 836.2859)">
				<stop  offset="0" style="stop-color:#4042E2"/>
				<stop  offset="1" style="stop-color:#4F52FF"/>
			</linearGradient>
			<polygon style="fill:url(#SVGID_00000050633624912055085300000005145839435494237631_);" points="1723.815,1484.357 
				1682.812,1484.691 1681.202,1286.911 1722.205,1286.577 			"/>
			
				<linearGradient id="SVGID_00000071518288171183373250000011226814438843787956_" gradientUnits="userSpaceOnUse" x1="1587.0399" y1="1284.9347" x2="1816.337" y2="1284.9347">
				<stop  offset="0" style="stop-color:#09005D"/>
				<stop  offset="1" style="stop-color:#1A0F91"/>
			</linearGradient>
			<path style="fill:url(#SVGID_00000071518288171183373250000011226814438843787956_);" d="M1816.175,1274.084
				c-0.018-2.182-1.801-3.937-3.984-3.919l-221.233,1.801c-2.182,0.018-3.937,1.801-3.919,3.983l0.161,19.835
				c0.018,2.182,1.801,3.937,3.984,3.919l221.233-1.802c2.182-0.018,3.937-1.801,3.919-3.983L1816.175,1274.084z"/>
			
				<linearGradient id="SVGID_00000152987157806591348610000014717552369507653267_" gradientUnits="userSpaceOnUse" x1="1326.4442" y1="492.8326" x2="1328.9418" y2="446.8353" gradientTransform="matrix(1 -0.0082 0.0082 1 369.603 836.2859)">
				<stop  offset="0" style="stop-color:#4042E2"/>
				<stop  offset="1" style="stop-color:#4F52FF"/>
			</linearGradient>
			<polygon style="fill:url(#SVGID_00000152987157806591348610000014717552369507653267_);" points="1722.303,1298.636 
				1681.3,1298.97 1681.054,1268.821 1722.058,1268.487 			"/>
		</g>
		<g>
			<g>
				<path style="fill:#BDD0FB;" d="M1975.092,1202.205l-63.854-11.818c-0.925-0.17-1.588,0.418-1.8,1.334l-22.303,97.163
					c-0.111,0.478,0.041,0.98,0.318,1.385c0.277,0.405,0.738,0.677,1.223,0.749l86.749,12.907c0.506,0.076,0.103-0.074,0.491-0.407
					c0.387-0.334-0.306-0.82-0.306-1.331v-98.252C1975.61,1203.085,1975.927,1202.358,1975.092,1202.205z"/>
				<path style="fill:#7D97F4;" d="M1928.386,1198.332c0,1.271-1.03,2.301-2.301,2.301c-1.271,0-2.301-1.031-2.301-2.301
					c0-1.271,1.03-2.301,2.301-2.301C1927.356,1196.031,1928.386,1197.061,1928.386,1198.332z"/>
				<path style="fill:#7D97F4;" d="M1960.108,1205.13c0,1.271-1.03,2.301-2.301,2.301c-1.271,0-2.301-1.03-2.301-2.301
					c0-1.271,1.03-2.301,2.301-2.301C1959.078,1202.829,1960.108,1203.859,1960.108,1205.13z"/>
			</g>
			<path style="fill:#BDD0FB;" d="M1957.807,1205.498L1957.807,1205.498c-0.204,0-0.369-0.165-0.369-0.369
				c0-0.103-0.012-10.354-1.29-20.606c-1.671-13.406-4.699-20.727-8.754-21.169c-4.083-0.454-8.939,5.3-14.094,16.605
				c-4.025,8.827-6.758,17.835-6.848,18.41c0,0.204-0.164,0.351-0.367,0.351s-0.368-0.183-0.368-0.387
				c0-0.833,7.668-25.707,16.286-33.437c1.894-1.699,3.733-2.46,5.471-2.276c10.592,1.156,10.703,40.821,10.702,42.509
				C1958.175,1205.333,1958.01,1205.498,1957.807,1205.498z"/>
			
				<linearGradient id="SVGID_00000032618230544896969320000014666793367223854978_" gradientUnits="userSpaceOnUse" x1="2019.8403" y1="895.1185" x2="1982.9678" y2="1232.8717">
				<stop  offset="0" style="stop-color:#FF928E"/>
				<stop  offset="1" style="stop-color:#FEB3B1"/>
			</linearGradient>
			<path style="fill:url(#SVGID_00000032618230544896969320000014666793367223854978_);" d="M2045.46,1045.193
				c0,0-35.207,80.331-85.259,92.768c-9.686,1.886-21.067,1.058-26.155,4.221c-5.782,3.594,1.249,13.281,4.063,20.625
				c2.812,7.343,3.905,3.906,5.156,1.562c1.25-2.344-4.011-9.739,2.864-12.656c6.875-2.916,4.792,1.562,1.562,5.416
				c-3.23,3.854-3.125,9.792-2.917,10.104c0.208,0.313,5.417-2.291,10.313-4.583c4.201-1.966,6.555-7.372,7.141-8.87
				c9.911-1.155,71.94-10.91,98.309-76.14C2060.536,1077.64,2063.076,1012.881,2045.46,1045.193z"/>
			<path style="fill:#FFFFFF;" d="M2191.824,1235.048c-0.178,0-0.335-0.13-0.364-0.311c-0.042-0.265-4.271-26.543-12.461-31.208
				c-1.411-0.805-2.819-0.907-4.305-0.316c-11.104,4.42-5.537,29.342-5.479,29.593c0.045,0.199-0.079,0.397-0.278,0.442
				c-0.195,0.047-0.396-0.078-0.442-0.277c-0.014-0.064-1.466-6.477-1.482-13.37c-0.021-9.232,2.541-15.137,7.407-17.074
				c1.682-0.67,3.347-0.548,4.944,0.36c8.496,4.84,12.652,30.638,12.824,31.734c0.032,0.202-0.106,0.39-0.307,0.422
				C2191.863,1235.047,2191.844,1235.048,2191.824,1235.048z"/>
			<polygon style="fill:#7D97F4;" points="2202.923,1232.843 2161.355,1229.001 2152.101,1234.132 2160.031,1244.055 
				2197.998,1240.187 			"/>
			
				<linearGradient id="SVGID_00000120539511964110538100000001500153113108007561_" gradientUnits="userSpaceOnUse" x1="9063.917" y1="905.4894" x2="9097.708" y2="905.4894" gradientTransform="matrix(0.997 0.0777 -0.0777 0.997 -6770.1216 -113.0097)">
				<stop  offset="0" style="stop-color:#09005D"/>
				<stop  offset="1" style="stop-color:#1A0F91"/>
			</linearGradient>
			<path style="fill:url(#SVGID_00000120539511964110538100000001500153113108007561_);" d="M2196.917,1485.952l0.688,15.903
				c0.131,3.017,2.299,5.563,5.264,6.138c5.005,0.971,13.063,2.194,21.058,1.974c3.509-0.096,6.043-3.445,5.243-6.863
				c-1.459-6.232-4.283-15.637-8.963-21.407l-17.475-1.362C2199.5,1480.083,2196.776,1482.714,2196.917,1485.952z"/>
			
				<linearGradient id="SVGID_00000153665918764150947390000001705020299401577617_" gradientUnits="userSpaceOnUse" x1="8921.1309" y1="1038.7416" x2="8969.7607" y2="470.3846" gradientTransform="matrix(0.997 0.0777 -0.0777 0.997 -6770.1216 -113.0097)">
				<stop  offset="0" style="stop-color:#FF928E"/>
				<stop  offset="1" style="stop-color:#FEB3B1"/>
			</linearGradient>
			<path style="fill:url(#SVGID_00000153665918764150947390000001705020299401577617_);" d="M2074.431,1290.737l-4.302,17.121
				c0,0,2.076,100.822,0.713,140.98c-0.214,6.296-2.32,12.37-6.031,17.461l-19.35,26.552l45.66-22.355l1.284-5.259l-6.38-10.382
				l18.099-111.354c1.063-6.541,0.219-13.251-2.431-19.325l-7.706-17.666L2074.431,1290.737z"/>
			
				<linearGradient id="SVGID_00000091701649710608103120000007994872574791563177_" gradientUnits="userSpaceOnUse" x1="8906.9199" y1="899.3152" x2="8961.5996" y2="899.3152" gradientTransform="matrix(0.997 0.0777 -0.0777 0.997 -6770.1216 -113.0097)">
				<stop  offset="0" style="stop-color:#09005D"/>
				<stop  offset="1" style="stop-color:#1A0F91"/>
			</linearGradient>
			<path style="fill:url(#SVGID_00000091701649710608103120000007994872574791563177_);" d="M2042.271,1496.668l13.93,1.086
				c2.607,0.203,5.16-0.802,6.911-2.744c4.783-5.304,14.638-15.612,18.963-15.564c5.822,0.065,3.475,20.596,3.475,20.596
				l3.246,0.253l6.107-25.264c1.536-6.356-1.168-12.983-6.713-16.45l0,0c0,0-2.087,9.688-9.604,13.459
				c-7.516,3.771-30.759,17.562-30.759,17.562s-2.669-0.595-5.673-0.291C2037.698,1489.764,2037.804,1496.32,2042.271,1496.668z"/>
			
				<linearGradient id="SVGID_00000098918986220756589650000001104481686425549197_" gradientUnits="userSpaceOnUse" x1="9018.9512" y1="1047.2073" x2="9067.5947" y2="478.6908" gradientTransform="matrix(0.997 0.0777 -0.0777 0.997 -6770.1216 -113.0097)">
				<stop  offset="0" style="stop-color:#FF928E"/>
				<stop  offset="1" style="stop-color:#FEB3B1"/>
			</linearGradient>
			<path style="fill:url(#SVGID_00000098918986220756589650000001104481686425549197_);" d="M2133.577,1303.64
				c0,0,49.307,114.278,56.552,140.057c7.244,25.779,8.837,46.937,8.806,48.926c-0.049,3.109,3.568,6.376,14.174,7.203
				c5.474,0.427,8.325-1.558,9.803-3.58c1.261-1.724,1.496-3.987,0.701-5.97c-2.819-7.035-11.753-29.512-14.922-39.638
				c-3.783-12.09-9.744-66.005-13.845-84.909c-4.101-18.904-8.802-39.429-31.494-59.768
				C2163.352,1305.962,2148.052,1288.446,2133.577,1303.64z"/>
			<path style="fill:#BDD0FB;" d="M2111.045,1120.932c-9.995-64.415,30.609-97.24,30.609-97.24
				c-12.131-13.609-30.479-23.91-44.547-30.429c-12.708-5.889-27.718-3.789-38.317,5.368c-11.661,10.074-24.347,24.343-22.647,37.7
				c1.799,14.138,22.66,85.609,22.66,85.609S2082.202,1135.332,2111.045,1120.932z"/>
			
				<linearGradient id="SVGID_00000166660145877572011180000008179053342893579670_" gradientUnits="userSpaceOnUse" x1="8908.5664" y1="1205.2455" x2="8888.1738" y2="1443.1472" gradientTransform="matrix(0.997 0.0777 -0.0777 0.997 -6770.1216 -113.0097)">
				<stop  offset="0" style="stop-color:#09005D"/>
				<stop  offset="1" style="stop-color:#1A0F91"/>
			</linearGradient>
			<path style="fill:url(#SVGID_00000166660145877572011180000008179053342893579670_);" d="M2141.699,1154.826
				c-4.648-18.774-30.654-33.894-30.654-33.894c-28.844,14.4-52.242,1.008-52.242,1.008s-7.072,20.401-4.821,40.048
				c2.251,19.647,16.146,145.87,16.146,145.87c36.588,10.431,94.942-0.222,94.942-0.222
				C2144.669,1263.749,2146.346,1173.6,2141.699,1154.826z"/>
			
				<linearGradient id="SVGID_00000001636097348126941730000007182029127310739847_" gradientUnits="userSpaceOnUse" x1="2079.2388" y1="1040.897" x2="2095.9551" y2="917.9818">
				<stop  offset="0" style="stop-color:#FF928E"/>
				<stop  offset="1" style="stop-color:#FEB3B1"/>
			</linearGradient>
			<path style="fill:url(#SVGID_00000001636097348126941730000007182029127310739847_);" d="M2094.959,953.456l7.885,55.458
				c0.788,4.892-3.528,3.765-8.312,2.471c-7.833-2.118-17.838-6.004-20.781-12.457c-0.3-0.657-0.418-1.382-0.461-2.103
				l-2.266-38.207c-0.18-3.031,1.668-5.815,4.531-6.827l10.409-3.676C2089.972,946.7,2094.283,949.26,2094.959,953.456z"/>
			<polygon style="fill:#91B3FA;" points="2222.984,1332.248 2237.238,1324.056 2202.923,1232.843 2194.686,1238.403 			"/>
			<path style="fill:#FFFFFF;" d="M2184.299,1244.966c-0.01,0-0.019,0-0.029-0.001c-0.203-0.016-0.355-0.193-0.339-0.397
				c0.021-0.266,1.866-26.885-5.751-35.599c-1.469-1.68-3.218-2.59-5.198-2.701c-1.929-0.095-3.711,0.579-5.283,2.044
				c-8.227,7.664-8.706,34.021-8.71,34.287c-0.003,0.202-0.167,0.363-0.369,0.363c-0.002,0-0.003,0-0.005,0
				c-0.204-0.003-0.366-0.171-0.364-0.375c0.016-1.096,0.488-26.938,8.945-34.816c1.726-1.607,3.69-2.365,5.827-2.24
				c2.185,0.123,4.107,1.116,5.712,2.952c7.943,9.086,5.952,35.872,5.931,36.142
				C2184.651,1244.819,2184.49,1244.966,2184.299,1244.966z"/>
			
				<linearGradient id="SVGID_00000142857388722485145920000005336023196080256411_" gradientUnits="userSpaceOnUse" x1="2120.3262" y1="1121.1805" x2="2186.4651" y2="1121.1805">
				<stop  offset="0" style="stop-color:#FF928E"/>
				<stop  offset="1" style="stop-color:#FEB3B1"/>
			</linearGradient>
			<path style="fill:url(#SVGID_00000142857388722485145920000005336023196080256411_);" d="M2121.773,1048.778
				c2.038,2.703,32.926,39.449,41.771,80.454s5.871,68.385,5.871,68.385s-8.987,6.702-5.756,11.456
				c3.231,4.754,2.378,7.989,6.508,8.911c4.13,0.922,9.251,2.222,8.626-5.93c-0.625-8.152,9.107-9.794,7.491-14.722
				c-1.609-4.905,9.405-137.242-43.871-173.138c-0.251-0.169-0.505-0.337-0.759-0.502
				C2119.132,1031.828,2118.496,1044.433,2121.773,1048.778z"/>
			<polygon style="fill:#BDD0FB;" points="2152.078,1234.431 2194.686,1238.403 2222.984,1332.248 2161.814,1333.847 			"/>
			<g>
				<path style="fill:#BDD0FB;" d="M2223.843,1330.781c-0.047,0-0.095-0.007-0.144-0.018c-0.303-0.079-0.482-0.389-0.405-0.693
					l2.735-10.429l-21.579-66.955c-0.095-0.299,0.068-0.617,0.365-0.715c0.308-0.091,0.622,0.068,0.715,0.365l21.63,67.115
					c0.033,0.104,0.035,0.215,0.009,0.319l-2.777,10.588C2224.323,1330.612,2224.095,1330.781,2223.843,1330.781z"/>
			</g>
			<g>
				<path style="fill:#BDD0FB;" d="M2236.207,1324.242c-0.082,0-0.166-0.018-0.243-0.055l-7.377-3.527
					c-0.283-0.135-0.403-0.474-0.268-0.755c0.137-0.281,0.48-0.4,0.755-0.268l7.377,3.527c0.283,0.135,0.403,0.474,0.268,0.755
					C2236.621,1324.122,2236.417,1324.242,2236.207,1324.242z"/>
			</g>
			<g>
				
					<linearGradient id="SVGID_00000029017432451647233170000004465391708154817424_" gradientUnits="userSpaceOnUse" x1="4521.167" y1="4082.301" x2="4596.8823" y2="4019.3689" gradientTransform="matrix(0.991 0.1338 -0.1338 0.991 -6641.4072 -709.5112)">
					<stop  offset="0" style="stop-color:#FF928E"/>
					<stop  offset="1" style="stop-color:#FEB3B1"/>
				</linearGradient>
				<path style="fill:url(#SVGID_00000029017432451647233170000004465391708154817424_);" d="M2086.232,909.467
					c0,0-16.872,4.586-30.84,26.187c-13.968,21.601-7.3,33.346,2.684,36.182c9.983,2.836,25.239,4.669,43.355-8.058
					C2119.548,951.052,2108.061,904.278,2086.232,909.467z"/>
				
					<linearGradient id="SVGID_00000031180336594003186180000015785505276422113441_" gradientUnits="userSpaceOnUse" x1="8831.6328" y1="1101.4052" x2="8838.0596" y2="1018.9263" gradientTransform="matrix(0.991 0.1338 -0.1338 0.991 -6641.4072 -709.5112)">
					<stop  offset="0" style="stop-color:#09005D"/>
					<stop  offset="1" style="stop-color:#1A0F91"/>
				</linearGradient>
				<path style="fill:url(#SVGID_00000031180336594003186180000015785505276422113441_);" d="M2092.268,950.002
					c0,0,16.598-32.121-13.268-36.559l-7.705,3.971c0,0-8.452-20.192,10.772-26.692c19.224-6.499,45.036,5.082,49.427,30.393
					c4.391,25.31-2.213,40.38-16.538,50.272c-14.325,9.892-17.804-3.986-17.804-3.986s8.414-9.925,6.37-16.119
					c-2.044-6.194-9.513-0.06-9.513-0.06L2092.268,950.002z"/>
				
					<linearGradient id="SVGID_00000049198465952603719330000003074426165964762523_" gradientUnits="userSpaceOnUse" x1="4533.1245" y1="4096.6914" x2="4608.8403" y2="4033.759" gradientTransform="matrix(0.991 0.1338 -0.1338 0.991 -6641.4072 -709.5112)">
					<stop  offset="0" style="stop-color:#FF928E"/>
					<stop  offset="1" style="stop-color:#FEB3B1"/>
				</linearGradient>
				<path style="fill:url(#SVGID_00000049198465952603719330000003074426165964762523_);" d="M2095.116,954.214
					c0,0,8.436-16.562,15.624-8.542c7.188,8.02-8.77,15.167-14.934,17.347L2095.116,954.214z"/>
				
					<linearGradient id="SVGID_00000099641395455772494870000012100626666287984811_" gradientUnits="userSpaceOnUse" x1="8905.2881" y1="1107.1453" x2="8911.7148" y2="1024.666" gradientTransform="matrix(0.991 0.1338 -0.1338 0.991 -6641.4072 -709.5112)">
					<stop  offset="0" style="stop-color:#09005D"/>
					<stop  offset="1" style="stop-color:#1A0F91"/>
				</linearGradient>
				<path style="fill:url(#SVGID_00000099641395455772494870000012100626666287984811_);" d="M2117.155,916.18
					c0,0,58.002-17.845,67.549,42.655c9.547,60.499,16.142,79.893,30.523,69.461c0,0-2.368,22.602-29.981,12.5
					C2113.57,1014.573,2157.193,930.611,2117.155,916.18z"/>
			</g>
		</g>
	</g>
</g>
</svg>
